<svg xmlns="http://www.w3.org/2000/svg" viewBox="0 0 156.07 55.43"><defs><style>.cls-1{fill:#b8c191;}.cls-1,.cls-2{fill-rule:evenodd;}.cls-2{fill:#231f20;}</style></defs><g id="Layer_2" data-name="Layer 2"><g id="_Layer_1" data-name="#Layer 1"><path class="cls-1" d="M0,8.49,0,49.44a6,6,0,0,0,6,6H6a6,6,0,0,0,6-6V29.07A7.34,7.34,0,0,1,4.9,21.76,7.35,7.35,0,0,1,12,27.25V8.35L27.54,0H24.11L10.79,7.16,7.65,8.73a4.9,4.9,0,0,1-6-1A1,1,0,0,0,0,8.49Zm30,0h0c-.34,10.08-.11,20.89,0,31.31a7.35,7.35,0,0,1,6.84-4.73,7.34,7.34,0,0,1-6.81,7.3c0,2.37.05,4.72.05,7a6,6,0,0,0,6,6h0a6,6,0,0,0,6-6V6.81L38.28,8.73a6,6,0,0,1-6.67-.88.93.93,0,0,0-1-.16.91.91,0,0,0-.57.84ZM15,8.55h0a1,1,0,0,1,1.59-.68,4.89,4.89,0,0,0,5.92.86L26.32,6.8v0L39,0h3.43L27.05,8.27V40.84a7.35,7.35,0,0,0-7.14-5.73,7.35,7.35,0,0,0,7.14,7.32v7a6,6,0,0,1-6,6h0a6,6,0,0,1-6-6c0-6.62-.12-13.5-.19-20.37a7.34,7.34,0,0,0,7-7.31,7.34,7.34,0,0,0-7,5.32C14.79,20.82,14.79,14.59,15,8.55Z"/><path class="cls-2" d="M53,29.93v9.58H51.36V29.93h-3V28.42H56.1v1.51Zm8.24,5.17h0a2.38,2.38,0,0,0-.51-1.62,1.88,1.88,0,0,0-1.49-.59,2.6,2.6,0,0,0-1.09.19,3.14,3.14,0,0,0-.83.62l-1-1a4.85,4.85,0,0,1,.6-.53,3,3,0,0,1,.67-.39,3.38,3.38,0,0,1,.76-.24,5.18,5.18,0,0,1,.93-.07,4.5,4.5,0,0,1,1.39.21,2.8,2.8,0,0,1,1.12.68,3.39,3.39,0,0,1,.76,1.26,5.56,5.56,0,0,1,.28,1.9,4.45,4.45,0,0,1-.91,3,3.09,3.09,0,0,1-2.44,1,3.56,3.56,0,0,1-1.42-.27A2.81,2.81,0,0,1,57,38.55a3.43,3.43,0,0,1-.65-1.21,4.8,4.8,0,0,1-.23-1.57V35.1Zm-3.55,1.11h0a5.78,5.78,0,0,0,.07.58,1.8,1.8,0,0,0,.15.49,1.86,1.86,0,0,0,.6.73,1.7,1.7,0,0,0,2.53-.73,1.55,1.55,0,0,0,.16-.49c0-.15,0-.35,0-.58Zm12.06,3.3h0V34.69a1.7,1.7,0,0,0-.46-1.33,1.56,1.56,0,0,0-1.13-.43,1.57,1.57,0,0,0-1.63,1.76v4.82H65V28.42h1.59v4a2.63,2.63,0,0,1,.93-.67,3,3,0,0,1,1.14-.21,3.21,3.21,0,0,1,1.1.18,2.65,2.65,0,0,1,.85.53,2.39,2.39,0,0,1,.62,1,4.23,4.23,0,0,1,.17,1.22v5Zm9.88-2.42h0a2.22,2.22,0,0,1-.25,1.09,2.19,2.19,0,0,1-.69.79,3.12,3.12,0,0,1-1,.48,5.41,5.41,0,0,1-1.31.15,6.81,6.81,0,0,1-1.79-.22,3.59,3.59,0,0,1-1.53-.91l1-1a2.37,2.37,0,0,0,1.08.66,4.5,4.5,0,0,0,1.19.17A2.56,2.56,0,0,0,77.62,38a.86.86,0,0,0,.49-.82.84.84,0,0,0-.24-.64,1.33,1.33,0,0,0-.82-.3l-1.26-.11a3.1,3.1,0,0,1-1.73-.62,1.91,1.91,0,0,1-.61-1.56,2.17,2.17,0,0,1,.24-1,2.31,2.31,0,0,1,.63-.76,3,3,0,0,1,1-.47,4.28,4.28,0,0,1,1.16-.15,6,6,0,0,1,1.64.2,3.14,3.14,0,0,1,1.29.68l-1,1a2.23,2.23,0,0,0-.88-.45,4.13,4.13,0,0,0-1.07-.13,1.68,1.68,0,0,0-1.08.28.9.9,0,0,0-.35.73.79.79,0,0,0,.25.63,1.59,1.59,0,0,0,.84.28l1.11.09A3.23,3.23,0,0,1,79,35.5a2,2,0,0,1,.63,1.59Zm1.93,2.42h0v-7.9h1.59v7.9Zm0-9.46h0V28.37h1.69v1.68Zm6.28,9.46h0a2.4,2.4,0,0,1-1-.18,1.9,1.9,0,0,1-.68-.48,1.94,1.94,0,0,1-.39-.69,2.82,2.82,0,0,1-.12-.83V28.42h1.59v8.81a1.11,1.11,0,0,0,.18.69.81.81,0,0,0,.67.23h.7v1.36Zm2.73,0h0v-7.9h1.59v7.9Zm0-9.46h0V28.37H92.2v1.68Zm9,9.46h0V34.69A1.74,1.74,0,0,0,99,33.36a1.6,1.6,0,0,0-1.13-.43,1.73,1.73,0,0,0-1.16.43,1.7,1.7,0,0,0-.48,1.33v4.82H94.67v-7.9h1.56v.79a2.57,2.57,0,0,1,1-.67,3.32,3.32,0,0,1,2.24,0,2.55,2.55,0,0,1,.85.53,2.39,2.39,0,0,1,.62,1,3.91,3.91,0,0,1,.18,1.22v5Zm8,0h0V28.42h1.68V39.51Zm.12-13.87h1.51v1.51h-1.51V25.64Zm9.09,13.87h0V34.69a1.74,1.74,0,0,0-.46-1.33,1.6,1.6,0,0,0-1.13-.43,1.73,1.73,0,0,0-1.16.43,1.7,1.7,0,0,0-.48,1.33v4.82h-1.59v-7.9h1.56v.79a2.57,2.57,0,0,1,1-.67,3.32,3.32,0,0,1,2.24,0,2.55,2.55,0,0,1,.85.53,2.39,2.39,0,0,1,.62,1,3.91,3.91,0,0,1,.17,1.22v5Zm9,0h0l-2.21-3.65-1.17,1.33v2.32h-1.59V28.42h1.59v6.84l3.07-3.65h1.93l-2.74,3.1,3.08,4.8Zm3.57,0h0v-7.9h1.59v7.9Zm0-9.46h0V28.37h1.68v1.68Zm10,7h0a2.22,2.22,0,0,1-.25,1.09,2.16,2.16,0,0,1-.68.79,3.22,3.22,0,0,1-1,.48,5.53,5.53,0,0,1-1.31.15,6.75,6.75,0,0,1-1.79-.22,3.53,3.53,0,0,1-1.53-.91l1-1a2.37,2.37,0,0,0,1.08.66,4.52,4.52,0,0,0,1.2.17,2.49,2.49,0,0,0,1.23-.27.87.87,0,0,0,.5-.82.81.81,0,0,0-.25-.64,1.33,1.33,0,0,0-.81-.3l-1.27-.11a3.06,3.06,0,0,1-1.72-.62,1.91,1.91,0,0,1-.61-1.56,2.29,2.29,0,0,1,.23-1,2.34,2.34,0,0,1,.64-.76,2.86,2.86,0,0,1,.94-.47,4.34,4.34,0,0,1,1.16-.15,6.07,6.07,0,0,1,1.65.2,3.1,3.1,0,0,1,1.28.68l-1,1A2.16,2.16,0,0,0,137,33a4.05,4.05,0,0,0-1.06-.13,1.68,1.68,0,0,0-1.08.28.89.89,0,0,0-.36.73.83.83,0,0,0,.25.63,1.59,1.59,0,0,0,.85.28l1.1.09a3.23,3.23,0,0,1,1.86.65,2,2,0,0,1,.63,1.59Zm-2.93,5.71h-1.57l1.09-2.29h1.28l-.8,2.29Zm9.12-3.29h0v-.72a2.84,2.84,0,0,1-.9.63,3.45,3.45,0,0,1-1.2.18,3.82,3.82,0,0,1-1.26-.18,2.18,2.18,0,0,1-1.49-2.23,2.14,2.14,0,0,1,.69-1.64,3,3,0,0,1,2.06-.64h2.07v-.56a1.42,1.42,0,0,0-.4-1.12,2,2,0,0,0-1.33-.36,2.34,2.34,0,0,0-1,.18,2.17,2.17,0,0,0-.72.6l-1-1a4.15,4.15,0,0,1,.57-.55,2.91,2.91,0,0,1,.62-.35,2.88,2.88,0,0,1,.74-.2,6,6,0,0,1,.89-.05,3.72,3.72,0,0,1,2.46.68,2.54,2.54,0,0,1,.8,2v5.28Zm0-3.49h-1.82c-1,0-1.45.38-1.45,1.14a1,1,0,0,0,.35.83,1.79,1.79,0,0,0,1.14.29,3.64,3.64,0,0,0,.77-.08,1.37,1.37,0,0,0,.66-.37,1.59,1.59,0,0,0,.35-1.17V36Zm5.87-3.19h0v6.68h-1.59V32.83h-.9V31.61h.9V30.53a2.46,2.46,0,0,1,.14-.81,1.92,1.92,0,0,1,.39-.7,2,2,0,0,1,.67-.5,2.37,2.37,0,0,1,1-.18h1v1.35h-.7a.8.8,0,0,0-.66.25,1,1,0,0,0-.21.67v1h1.57v1.22Zm3.27,6.68h0v-7.9h1.59v7.9Zm-90,10.57h0a7.78,7.78,0,0,1-.18,1.77,3,3,0,0,1-1.73,2,3.71,3.71,0,0,1-2.78,0,3.06,3.06,0,0,1-1-.67A2.85,2.85,0,0,1,58,51.85a7.22,7.22,0,0,1-.19-1.77A7,7,0,0,1,58,48.33,2.84,2.84,0,0,1,58.78,47a3.06,3.06,0,0,1,1-.67,3.71,3.71,0,0,1,2.78,0,3,3,0,0,1,1.73,2,7.54,7.54,0,0,1,.18,1.75Zm-1.59,0h0a7.9,7.9,0,0,0-.09-1.23,1.63,1.63,0,0,0-.45-.94,1.58,1.58,0,0,0-1.17-.45,1.55,1.55,0,0,0-1.15.45,1.71,1.71,0,0,0-.46.94,7.9,7.9,0,0,0-.09,1.23,8.09,8.09,0,0,0,.09,1.23,1.71,1.71,0,0,0,.46.93,1.52,1.52,0,0,0,1.15.47,1.55,1.55,0,0,0,1.17-.47,1.64,1.64,0,0,0,.45-.93,8.09,8.09,0,0,0,.09-1.23Zm8.56,4h0V49.22a1.76,1.76,0,0,0-.46-1.34,1.63,1.63,0,0,0-1.13-.42,1.57,1.57,0,0,0-1.64,1.76V54H66.58v-7.9h1.56v.79a2.57,2.57,0,0,1,1-.67A3.21,3.21,0,0,1,70.24,46a3,3,0,0,1,1.1.19,2.4,2.4,0,0,1,.85.53,2.42,2.42,0,0,1,.62,1A4,4,0,0,1,73,49v5ZM80,54h0v-.85a2.42,2.42,0,0,1-1,.74,3.31,3.31,0,0,1-2.24,0,2.09,2.09,0,0,1-.83-.51A2.78,2.78,0,0,1,75.21,52a11.24,11.24,0,0,1-.15-1.87q0-.48,0-1a6.12,6.12,0,0,1,.12-.9,4.07,4.07,0,0,1,.28-.81,2.58,2.58,0,0,1,.46-.67,2.25,2.25,0,0,1,.82-.51A3,3,0,0,1,77.86,46a3.1,3.1,0,0,1,1.14.19,2.29,2.29,0,0,1,.93.7v-4h1.59V54Zm0-4h0a8.23,8.23,0,0,0-.05-1,2.6,2.6,0,0,0-.23-.83,1.32,1.32,0,0,0-.5-.57,1.53,1.53,0,0,0-.85-.21,1.55,1.55,0,0,0-.87.21,1.32,1.32,0,0,0-.5.57,2.6,2.6,0,0,0-.23.83c0,.32,0,.66,0,1s0,.69,0,1a2.58,2.58,0,0,0,.23.84,1.29,1.29,0,0,0,.5.58,1.55,1.55,0,0,0,.87.21,1.53,1.53,0,0,0,.85-.21,1.29,1.29,0,0,0,.5-.58,2.58,2.58,0,0,0,.23-.84,8,8,0,0,0,.05-1Zm8.88,4h0v-.8a2.61,2.61,0,0,1-1,.67,3.19,3.19,0,0,1-2.25,0,2.49,2.49,0,0,1-.85-.53,2.46,2.46,0,0,1-.62-1A4.3,4.3,0,0,1,84,51.18v-5h1.59V51A1.73,1.73,0,0,0,86,52.29a1.6,1.6,0,0,0,1.13.42,1.89,1.89,0,0,0,.63-.1,1.27,1.27,0,0,0,.52-.32,1.53,1.53,0,0,0,.35-.55,2.15,2.15,0,0,0,.13-.79V46.14h1.59V54ZM51,44.45h0v3.38h4.61v1.52H51V54H49.29V42.94h7.09v1.51Z"/><path class="cls-2" d="M52.22,13.24l-.39-1.1H49.58l-.39,1.1h-.93l2.1-5.5h.69l2.1,5.5ZM50.72,9l-.88,2.45h1.75L50.72,9Zm2.88,4.26v-.72l2.63-4H53.71V7.74h3.54v.68L54.6,12.49h2.65v.75Zm4.57-3h3.27c0-.23,0-.42,0-.58a2.11,2.11,0,0,0-.06-.41.77.77,0,0,0-.1-.28.69.69,0,0,0-.16-.22,1.13,1.13,0,0,0-.85-.34,1.16,1.16,0,0,0-.78.25,1.19,1.19,0,0,0-.42.7h-.87a2.08,2.08,0,0,1,.22-.65,1.87,1.87,0,0,1,.42-.54,1.83,1.83,0,0,1,.62-.37,2.29,2.29,0,0,1,.81-.14,2.17,2.17,0,0,1,.84.15,1.89,1.89,0,0,1,.64.41,1.38,1.38,0,0,1,.32.42,1.76,1.76,0,0,1,.18.47,4.89,4.89,0,0,1,.06.59c0,.22,0,.47,0,.76s0,.54,0,.76a4.69,4.69,0,0,1-.06.59,2,2,0,0,1-.18.48,1.48,1.48,0,0,1-.32.41,2.09,2.09,0,0,1-.64.42,2.54,2.54,0,0,1-1.69,0,1.9,1.9,0,0,1-.72-.48,1.64,1.64,0,0,1-.4-.65,3.25,3.25,0,0,1-.11-.9v-.84Zm.86,1a1.75,1.75,0,0,0,.06.48,1,1,0,0,0,.22.38,1.15,1.15,0,0,0,.42.3,1.46,1.46,0,0,0,.52.1,1.17,1.17,0,0,0,.85-.34,1,1,0,0,0,.15-.2.91.91,0,0,0,.1-.24,2.57,2.57,0,0,0,0-.33,3,3,0,0,0,0-.46H59v.31Zm7.71,2-1.2-2.32H64.45v2.32h-.86V7.74H65.8a2.17,2.17,0,0,1,.74.12,1.68,1.68,0,0,1,.55.33,1.32,1.32,0,0,1,.36.51,1.75,1.75,0,0,1,.12.65,1.38,1.38,0,0,1-.33,1,1.63,1.63,0,0,1-.8.5l1.31,2.43Zm0-3.88a.78.78,0,0,0-.27-.64,1.05,1.05,0,0,0-.7-.23H64.45v1.72h1.29a1,1,0,0,0,.7-.22.77.77,0,0,0,.27-.63Zm6.16,2.33a1.78,1.78,0,0,1-.12.67,1.44,1.44,0,0,1-.36.48,1.28,1.28,0,0,1-.55.3,2.17,2.17,0,0,1-.69.1H68.84V7.74h2.22a1.86,1.86,0,0,1,1.27.4,1.42,1.42,0,0,1,.46,1.11,1.35,1.35,0,0,1-.07.41,1.56,1.56,0,0,1-.18.34,1.2,1.2,0,0,1-.24.26,1,1,0,0,1-.28.15,1.45,1.45,0,0,1,.32.18,1.33,1.33,0,0,1,.27.26,1.43,1.43,0,0,1,.19.37,1.37,1.37,0,0,1,.07.47Zm-.86,0a.78.78,0,0,0-.24-.6,1,1,0,0,0-.7-.23H69.71v1.67h1.36a1,1,0,0,0,.7-.23.82.82,0,0,0,.24-.61Zm-.09-2.37a.7.7,0,0,0-.26-.59,1.07,1.07,0,0,0-.67-.2H69.71v1.58H71a1.07,1.07,0,0,0,.67-.2.72.72,0,0,0,.26-.59Zm5.52,4-.4-1.1H74.79l-.39,1.1h-.92l2.09-5.5h.7l2.09,5.5ZM75.94,9l-.89,2.45H76.8L75.94,9Zm4.78,2,1.71-3.24h-1l-1.2,2.42L79.09,7.74h-1L79.85,11v2.26h.87V11Zm6.37.62a2,2,0,0,1-.7,1.25,2.09,2.09,0,0,1-1.33.44,2.38,2.38,0,0,1-.84-.14,2.09,2.09,0,0,1-.64-.42,1.48,1.48,0,0,1-.32-.41,2,2,0,0,1-.18-.48,4.56,4.56,0,0,1-.07-.59c0-.22,0-.47,0-.76s0-.54,0-.76a4.78,4.78,0,0,1,.07-.59,1.76,1.76,0,0,1,.18-.47,1.38,1.38,0,0,1,.32-.42,1.89,1.89,0,0,1,.64-.41,2.17,2.17,0,0,1,.84-.15,2,2,0,0,1,1.33.44,2,2,0,0,1,.7,1.26h-.88a1.23,1.23,0,0,0-.38-.69,1.09,1.09,0,0,0-.77-.26,1.12,1.12,0,0,0-.85.34A.81.81,0,0,0,84,9a1.08,1.08,0,0,0-.11.32,4.31,4.31,0,0,0-.05.46c0,.19,0,.42,0,.69s0,.5,0,.69,0,.34.05.47A1.33,1.33,0,0,0,84,12a.81.81,0,0,0,.17.24,1.15,1.15,0,0,0,.85.34,1.1,1.1,0,0,0,.77-.27,1.33,1.33,0,0,0,.4-.68Zm4.44,1.64-.4-1.1H88.88l-.39,1.1h-.92l2.09-5.5h.7l2.09,5.5ZM90,9l-.89,2.45h1.75L90,9Zm6.73,4.26L94.13,9.37v3.87h-.87V7.74h.79l2.64,3.86V7.74h.87v5.5Zm7.37,0-1.21-2.32h-1.08v2.32H101V7.74h2.22a2.11,2.11,0,0,1,.73.12,1.73,1.73,0,0,1,.56.33,1.57,1.57,0,0,1,.36.51,1.75,1.75,0,0,1,.12.65,1.38,1.38,0,0,1-.33,1,1.71,1.71,0,0,1-.81.5l1.32,2.43Zm0-3.88a.78.78,0,0,0-.27-.64,1,1,0,0,0-.7-.23h-1.28v1.72h1.28a1,1,0,0,0,.7-.22.77.77,0,0,0,.27-.63Zm2.14,3.88V7.74h3.65v.75h-2.79V10.1h2.38v.74h-2.38v1.65h2.79v.75Zm8.4-1.57a1.48,1.48,0,0,1-.15.68,1.4,1.4,0,0,1-.43.51,1.8,1.8,0,0,1-.65.32,3,3,0,0,1-.82.11,3.46,3.46,0,0,1-1.13-.16,2.41,2.41,0,0,1-.89-.57l.57-.55a1.79,1.79,0,0,0,.67.42,2.52,2.52,0,0,0,.79.12,1.56,1.56,0,0,0,.88-.22.74.74,0,0,0,.3-.63.68.68,0,0,0-.22-.57,1.22,1.22,0,0,0-.63-.24l-.67-.09a2,2,0,0,1-1.08-.44,1.34,1.34,0,0,1-.42-1.06,1.54,1.54,0,0,1,.13-.65,1.48,1.48,0,0,1,.38-.51,1.73,1.73,0,0,1,.6-.33,2.45,2.45,0,0,1,.8-.12,3,3,0,0,1,1,.15,2.5,2.5,0,0,1,.78.48l-.54.53a1.39,1.39,0,0,0-.58-.34,2.48,2.48,0,0,0-.68-.09,1.09,1.09,0,0,0-.77.24.8.8,0,0,0-.27.62.82.82,0,0,0,0,.28.53.53,0,0,0,.16.23,1,1,0,0,0,.25.15,2,2,0,0,0,.38.1l.68.1a3.25,3.25,0,0,1,.63.15,1.45,1.45,0,0,1,.43.26,1.4,1.4,0,0,1,.46,1.12Zm5.16-2.26a1.76,1.76,0,0,1-.13.66,1.64,1.64,0,0,1-.37.53,1.76,1.76,0,0,1-.58.35,2.19,2.19,0,0,1-.75.12h-1.3v2.17h-.87V7.74H118a2,2,0,0,1,.75.13,1.61,1.61,0,0,1,.58.35,1.5,1.5,0,0,1,.37.52,1.86,1.86,0,0,1,.13.67Zm-.87,0a.84.84,0,0,0-.28-.68,1.05,1.05,0,0,0-.73-.24h-1.25v1.84h1.25a1.05,1.05,0,0,0,.73-.24.84.84,0,0,0,.28-.68Zm5.93,2a1.77,1.77,0,0,1-.16.77,1.65,1.65,0,0,1-.43.6,1.89,1.89,0,0,1-.66.39,2.38,2.38,0,0,1-.81.14,2.46,2.46,0,0,1-.81-.14,1.94,1.94,0,0,1-.65-.39,1.63,1.63,0,0,1-.42-.6,1.77,1.77,0,0,1-.16-.77V7.74h.87v3.61a1.14,1.14,0,0,0,.32.87,1.16,1.16,0,0,0,.85.32,1.21,1.21,0,0,0,.87-.32,1.18,1.18,0,0,0,.32-.87V7.74h.87v3.65Zm5.43.3a1.78,1.78,0,0,1-.12.67,1.44,1.44,0,0,1-.36.48,1.28,1.28,0,0,1-.55.3,2.17,2.17,0,0,1-.69.1h-2.31V7.74h2.22a1.86,1.86,0,0,1,1.27.4,1.42,1.42,0,0,1,.46,1.11,1.35,1.35,0,0,1-.07.41A1.56,1.56,0,0,1,130,10a1.2,1.2,0,0,1-.24.26,1,1,0,0,1-.28.15,1.45,1.45,0,0,1,.32.18,1.33,1.33,0,0,1,.27.26,1.43,1.43,0,0,1,.19.37,1.37,1.37,0,0,1,.07.47Zm-.86,0a.78.78,0,0,0-.24-.6,1,1,0,0,0-.7-.23h-1.36v1.67h1.36a1,1,0,0,0,.7-.23.82.82,0,0,0,.24-.61Zm-.09-2.37a.7.7,0,0,0-.26-.59,1.07,1.07,0,0,0-.67-.2h-1.28v1.58h1.28a1.07,1.07,0,0,0,.67-.2.72.72,0,0,0,.26-.59Zm2.24,4V7.74h.86v4.75h2.75v.75Zm10.39,0-1.6-2.71-1,1.11v1.6h-.86V7.74h.86v2.77l2.34-2.77h1.06L140.93,9.9l2,3.34Zm5.37,0-.4-1.1h-2.25l-.39,1.1h-.93l2.1-5.5h.69l2.1,5.5ZM145.83,9l-.89,2.45h1.75L145.83,9Zm6.8,2.69a1.37,1.37,0,0,1-.16.68,1.48,1.48,0,0,1-.42.51,1.88,1.88,0,0,1-.65.32,3.09,3.09,0,0,1-.83.11,3.44,3.44,0,0,1-1.12-.16,2.44,2.44,0,0,1-.9-.57l.57-.55a1.75,1.75,0,0,0,.68.42,2.47,2.47,0,0,0,.79.12,1.51,1.51,0,0,0,.87-.22.73.73,0,0,0,.31-.63.69.69,0,0,0-.23-.57,1.19,1.19,0,0,0-.62-.24l-.68-.09a2,2,0,0,1-1.07-.44,1.35,1.35,0,0,1-.43-1.06,1.55,1.55,0,0,1,.14-.65,1.46,1.46,0,0,1,.37-.51,1.93,1.93,0,0,1,.6-.33,2.49,2.49,0,0,1,.8-.12,2.87,2.87,0,0,1,1,.15,2.43,2.43,0,0,1,.79.48l-.55.53a1.39,1.39,0,0,0-.58-.34,2.43,2.43,0,0,0-.68-.09,1.11,1.11,0,0,0-.77.24.82.82,0,0,0-.26.62.64.64,0,0,0,0,.28.46.46,0,0,0,.16.23.87.87,0,0,0,.25.15,1.92,1.92,0,0,0,.37.1l.68.1a3.38,3.38,0,0,1,.64.15,1.29,1.29,0,0,1,.42.26,1.41,1.41,0,0,1,.47,1.12Zm1.16,1.57V7.74h.87v5.5ZM49,22.85v-5.5h3.64v.75H49.81v1.61h2.37v.74H49.81V22.1h2.78v.75Zm4.83,0v-5.5h.87V22.1H57.4v.75Zm8.77,0V19.17l-1.31,2.68H60.6l-1.35-2.68v3.68h-.87v-5.5h.87l1.67,3.42,1.63-3.42h.87v5.5Zm6.12,0H68l-1.88-5.5H67l1.32,4,1.31-4h.91l-1.89,5.5Zm2.46-3h3.28c0-.23,0-.42,0-.58s0-.3-.06-.41a1.1,1.1,0,0,0-.1-.29,1.12,1.12,0,0,0-.16-.22,1.19,1.19,0,0,0-.85-.34,1.21,1.21,0,0,0-.79.26A1.23,1.23,0,0,0,72,19h-.87a2.08,2.08,0,0,1,.22-.65,1.72,1.72,0,0,1,.42-.55,2,2,0,0,1,.62-.36,2.29,2.29,0,0,1,.81-.14,2.37,2.37,0,0,1,.83.14,2,2,0,0,1,.64.42,1.61,1.61,0,0,1,.33.42,1.75,1.75,0,0,1,.17.47,3.29,3.29,0,0,1,.07.59c0,.22,0,.47,0,.76s0,.54,0,.76a3.29,3.29,0,0,1-.07.59,1.75,1.75,0,0,1-.17.47,1.61,1.61,0,0,1-.33.42,1.8,1.8,0,0,1-.64.41,2.16,2.16,0,0,1-.83.15,2.34,2.34,0,0,1-.85-.15,1.9,1.9,0,0,1-.72-.48,1.64,1.64,0,0,1-.4-.65,2.88,2.88,0,0,1-.12-.9v-.84Zm.87,1a1.63,1.63,0,0,0,.06.47,1,1,0,0,0,.22.39,1.12,1.12,0,0,0,.41.3,1.56,1.56,0,0,0,.53.1,1.19,1.19,0,0,0,.85-.34,1.3,1.3,0,0,0,.15-.2.75.75,0,0,0,.09-.24,1.61,1.61,0,0,0,.06-.33c0-.13,0-.28,0-.46H72v.31Zm8.41-2.8v4.75h-.86V18.1H78v-.75h4v.75Zm2.34,1.78H86c0-.23,0-.42,0-.58s0-.3-.06-.41a1.1,1.1,0,0,0-.1-.29,1.12,1.12,0,0,0-.16-.22,1.19,1.19,0,0,0-.85-.34,1.21,1.21,0,0,0-.79.26,1.23,1.23,0,0,0-.41.7h-.87a2.08,2.08,0,0,1,.22-.65,1.72,1.72,0,0,1,.42-.55,2,2,0,0,1,.62-.36,2.29,2.29,0,0,1,.81-.14,2.37,2.37,0,0,1,.83.14,2,2,0,0,1,.64.42,1.61,1.61,0,0,1,.33.42,1.75,1.75,0,0,1,.17.47,3.29,3.29,0,0,1,.07.59c0,.22,0,.47,0,.76s0,.54,0,.76a3.29,3.29,0,0,1-.07.59,1.75,1.75,0,0,1-.17.47,1.61,1.61,0,0,1-.33.42,1.8,1.8,0,0,1-.64.41,2.16,2.16,0,0,1-.83.15,2.43,2.43,0,0,1-.86-.15,1.94,1.94,0,0,1-.71-.48,1.64,1.64,0,0,1-.4-.65,2.88,2.88,0,0,1-.12-.9v-.84Zm.87,1a1.63,1.63,0,0,0,.06.47,1,1,0,0,0,.22.39,1.12,1.12,0,0,0,.41.3,1.56,1.56,0,0,0,.53.1,1.19,1.19,0,0,0,.85-.34,1.3,1.3,0,0,0,.15-.2.75.75,0,0,0,.09-.24,1.61,1.61,0,0,0,.06-.33c0-.13,0-.28,0-.46h-2.4v.31Zm7.74,2v-2.4H89v2.4h-.87v-5.5H89V19.7h2.32V17.35h.86v5.5Zm5.92-1.57a1.51,1.51,0,0,1-.15.68,1.48,1.48,0,0,1-.42.51,1.88,1.88,0,0,1-.65.32,3.09,3.09,0,0,1-.83.11,3.68,3.68,0,0,1-1.12-.16,2.44,2.44,0,0,1-.9-.57l.57-.55a1.79,1.79,0,0,0,.67.42,2.53,2.53,0,0,0,.8.12,1.51,1.51,0,0,0,.87-.22.82.82,0,0,0,.08-1.21,1.22,1.22,0,0,0-.62-.23l-.68-.09A2,2,0,0,1,93.83,20a1.32,1.32,0,0,1-.43-1.06,1.51,1.51,0,0,1,.14-.65,1.34,1.34,0,0,1,.37-.51,1.66,1.66,0,0,1,.6-.33,2.49,2.49,0,0,1,.8-.12,2.87,2.87,0,0,1,1,.15,2.29,2.29,0,0,1,.78.48l-.54.52a1.48,1.48,0,0,0-.58-.33,2.43,2.43,0,0,0-.68-.09,1.11,1.11,0,0,0-.77.24.77.77,0,0,0-.26.62.86.86,0,0,0,0,.28.73.73,0,0,0,.16.23,1.1,1.1,0,0,0,.26.15,1.33,1.33,0,0,0,.37.09l.68.1a4.06,4.06,0,0,1,.63.16,1.52,1.52,0,0,1,.43.25,1.43,1.43,0,0,1,.46,1.13Zm3.53,1.57v-5.5h.86V22.1h2.75v.75Zm10,0L108.2,19v3.87h-.87v-5.5h.8l2.64,3.86V17.35h.86v5.5Zm5.56,0-.39-1.1h-2.25l-.4,1.1h-.92l2.09-5.5h.7l2.09,5.5Zm-1.5-4.26L114,21h1.76l-.87-2.44Zm2.87,4.26v-.72l2.64-4h-2.52v-.75h3.54V18l-2.65,4.07h2.65v.75Zm10.3,0-1.2-2.32h-1.08v2.32h-.87v-5.5h2.21a2.13,2.13,0,0,1,.74.12,1.68,1.68,0,0,1,.55.33,1.32,1.32,0,0,1,.36.51,1.71,1.71,0,0,1,.12.65,1.39,1.39,0,0,1-.32,1,1.71,1.71,0,0,1-.81.5l1.31,2.43ZM128,19a.77.77,0,0,0-.27-.63,1,1,0,0,0-.7-.23h-1.28v1.72h1.28a1,1,0,0,0,.7-.22A.78.78,0,0,0,128,19Zm2.13,3.89v-5.5H131V22.1h2.75v.75Zm8.19-2.26v2.26h-.87V20.59l-1.7-3.24h.94l1.2,2.42,1.19-2.42h.95l-1.71,3.24Zm-2.19-7.35V7.74H137v5.5Zm.06-6.88H137v.75h-.78V6.36ZM98.45,22.85v-5.5h.86v5.5ZM98.51,16h.78v.75h-.78V16Zm24,6.88v-5.5h.87v5.5Zm.07-6.88h.77v.75h-.77V16Zm11.5,6.88v-5.5H135v5.5ZM134.2,16H135v.75h-.78V16Zm6.65,6.88v-5.5h.87v5.5Zm.07-6.88h.78v.75h-.78Z"/></g></g></svg>